<svg xmlns:dc="http://purl.org/dc/elements/1.1/" xmlns:cc="http://creativecommons.org/ns#" xmlns:rdf="http://www.w3.org/1999/02/22-rdf-syntax-ns#" xmlns:svg="http://www.w3.org/2000/svg" xmlns="http://www.w3.org/2000/svg" xmlns:xlink="http://www.w3.org/1999/xlink" id="svg138528" version="1.1">
  <metadata id="metadata138534">
    <rdf:rdf>
      <cc:work rdf:about="">
        <dc:format>image/svg+xml</dc:format>
        <dc:type rdf:resource="http://purl.org/dc/dcmitype/StillImage"></dc:type>
      </cc:work>
    </rdf:rdf>
  </metadata>
  <g>
    <path id="path138537" 
      d="m 21,-50 c 4,0 7.488,-0.72 11.016,-2.232 3.384,-1.44 6.408,-3.456 9.072,-6.12 2.592,-2.592 4.608,-5.616 6.048,-9 1.512,-3.528 2.232,-7.2 2.232,-11.088 0,-3.816 -0.72,-7.488 -2.232,-11.016 -1.44,-3.384 -3.456,-6.408 -6.048,-9.072 -2.664,-2.592 -5.688,-4.608 -9.072,-6.048 -3.528,-1.512 -7.2,-2.232 -11.016,-2.232 -3.888,0 -7.56,0.72 -11.088,2.232 -3.384,1.44 -6.408,3.456 -9,6.048 -2.664,2.664 -4.68,5.688 -6.12,9.072 -1.512,3.528 -2.232,7.2 -2.232,11.016 0,3.888 0.72,7.56 2.232,11.088 1.44,3.384 3.456,6.408 6.12,9 2.592,2.664 5.616,4.68 9,6.12 3.528,1.512 7.2,2.232 11.088,2.232 z m 0,-45.504 c 4.536,0 8.856,1.8 12.096,5.04 3.168,3.168 4.968,7.488 4.968,12.096 0,4.536 -1.8,8.856 -4.968,12.096 -3.24,3.168 -7.56,4.968 -12.096,4.968 -4.608,0 -8.928,-1.8 -12.096,-4.968 -3.24,-3.24 -5.04,-7.56 -5.04,-12.096 0,-4.608 1.8,-8.928 5.04,-12.096 3.168,-3.24 7.488,-5.04 12.096,-5.04 z" 
      stroke-width="0"  
      fill="#2d5ec7" 
      stroke="#2d5ec7" 
      transform="translate(0 0) translate(459 55) scale(1) translate(-450.27256 55)"></path>
    <path id="path138539" 
      d="m 55-50 c 4,0 7.56,-0.72 11.088,-2.16 3.384,-1.44 6.48,-3.528 9.072,-6.12 2.592,-2.664 4.68,-5.688 6.12,-9.072 1.44,-3.528 2.232,-7.272 2.232,-11.088 v -5.688 h -28.512 v 11.304 h 16.272 c -0.864,2.448 -2.232,4.68 -4.104,6.552 -3.24,3.24 -7.56,5.04 -12.168,5.04 -4.608,0 -8.928,-1.8 -12.168,-5.04 -3.24,-3.24 -5.04,-7.56 -5.04,-12.168 0,-4.608 1.8,-8.928 5.04,-12.168 3.24,-3.24 7.56,-5.04 12.168,-5.04 2.808,0 5.472,0.648 7.92,1.944 2.376,1.224 4.392,2.952 5.976,5.112 l 9.144,-6.624 c -2.592,-3.6 -6.048,-6.48 -9.936,-8.568 -3.96,-2.088 -8.496,-3.168 -13.104,-3.168 -3.816,0 -7.56,0.72 -11.088,2.232 -3.384,1.44 -6.408,3.528 -9.072,6.12 -2.592,2.592 -4.608,5.688 -6.048,9.072 -1.512,3.528 -2.232,7.2 -2.232,11.088 0,3.816 0.72,7.56 2.232,11.088 1.44,3.384 3.456,6.408 6.048,9.072 2.664,2.592 5.688,4.608 9.072,6.048 3.528,1.512 7.272,2.232 11.088,2.232 z" 
      stroke-width="0" 
      fill="#898989" 
      stroke="#898989" 
      transform="translate(0 0) translate(512.5 55) scale(1) translate(-514.89631 55.072)"></path>
  </g>
</svg>