<?xml version="1.0" standalone="no"?>
<!DOCTYPE svg PUBLIC "-//W3C//DTD SVG 20010904//EN"
 "http://www.w3.org/TR/2001/REC-SVG-20010904/DTD/svg10.dtd">
<svg version="1.0" xmlns="http://www.w3.org/2000/svg"
 width="471.000000pt" height="471.000000pt" viewBox="0 0 471.000000 471.000000"
 preserveAspectRatio="xMidYMid meet">
<metadata>
Created by potrace 1.14, written by Peter Selinger 2001-2017
</metadata>
<g transform="translate(0.000000,471.000000) scale(0.100000,-0.100000)"
fill="#000000" stroke="none">
<path d="M2160 4610 c-1361 -6 -1365 -6 -1442 -27 -161 -46 -341 -164 -428
-280 -53 -71 -117 -194 -144 -276 -38 -113 -39 -158 -40 -1692 -1 -1431 0
-1503 18 -1575 19 -77 104 -272 125 -284 6 -4 11 -12 11 -17 0 -6 -5 -7 -12
-3 -7 5 -8 3 -4 -5 5 -7 11 -10 14 -7 10 10 51 -35 45 -50 -5 -13 18 -44 33
-44 5 0 3 5 -4 12 -7 7 -12 16 -12 21 0 5 21 -9 48 -30 109 -90 209 -141 352
-180 l105 -28 1545 0 1545 0 95 26 c189 53 352 156 442 279 24 33 49 57 56 55
7 -3 11 -1 8 4 -3 5 10 42 29 83 18 41 44 108 57 149 l23 74 3 1518 c2 1496 2
1518 -18 1620 -15 75 -34 129 -70 202 -61 123 -119 196 -217 275 -176 142
-360 193 -673 187 -69 -1 -739 -4 -1490 -7z m700 -355 l30 -29 0 -411 0 -410
-82 -82 -83 -81 -349 -4 -349 -5 -46 32 c-25 18 -68 58 -96 91 l-50 59 0 390
c0 411 0 410 47 461 19 21 23 21 483 19 l465 -1 30 -29z m1105 10 c102 -27
187 -88 242 -173 63 -98 73 -164 73 -509 0 -285 -1 -304 -19 -322 -18 -18 -42
-19 -433 -23 -227 -2 -418 -1 -424 2 -7 3 -51 42 -99 88 l-87 82 1 391 c1 215
6 400 10 412 9 24 46 60 71 71 8 3 148 4 310 1 226 -3 309 -8 355 -20z m-2491
-19 l36 -33 0 -405 0 -404 -77 -83 -78 -83 -420 -5 -420 -6 -33 28 -33 28 3
331 c3 319 4 333 26 388 51 126 130 200 257 243 84 29 130 33 422 34 l282 1
35 -34z m1651 -1020 c18 -8 48 -34 65 -58 28 -38 31 -49 28 -95 -15 -181 -247
-205 -318 -34 -15 38 -7 88 23 131 43 64 127 87 202 56z m-1375 -13 c35 -24
77 -74 91 -106 23 -55 -22 -145 -88 -172 -82 -35 -170 0 -213 84 -26 52 -25
77 4 125 45 75 148 109 206 69z m2468 -317 c63 -33 60 -6 63 -516 3 -480 1
-499 -37 -514 -6 -2 -203 -5 -438 -7 l-427 -3 -80 84 -80 84 3 361 3 362 38
46 c21 26 55 59 74 75 34 25 45 27 157 33 67 3 251 6 409 7 230 2 293 -1 315
-12z m-2843 -15 c22 -10 58 -37 79 -60 36 -36 41 -48 47 -108 5 -38 8 -213 8
-389 l1 -322 -71 -76 -71 -76 -438 0 -439 0 -22 31 c-22 31 -22 32 -20 482 2
332 5 455 14 466 7 8 30 27 51 43 l39 28 391 0 c360 0 394 -2 431 -19z m1429
-30 c31 -25 63 -56 71 -71 11 -21 14 -104 16 -399 l1 -372 -52 -57 c-105 -114
-49 -102 -467 -102 l-365 0 -76 73 c-42 39 -80 77 -84 82 -4 6 -8 171 -8 368
0 289 3 363 14 385 11 21 98 112 118 124 10 5 386 15 564 14 l211 -1 57 -44z
m-1040 -1039 c67 -39 94 -126 61 -195 -18 -39 -97 -87 -142 -87 -70 0 -153 95
-153 173 0 33 51 100 91 120 39 20 97 16 143 -11z m1349 14 c18 -7 47 -30 65
-50 76 -87 17 -231 -101 -243 -52 -5 -94 17 -136 71 -93 117 33 280 172 222z
m-1744 -320 c14 -8 47 -37 73 -64 61 -65 62 -75 63 -542 l0 -375 -24 -33 -23
-33 -307 6 c-330 7 -390 13 -460 47 -66 31 -181 150 -217 223 l-29 60 2 324 2
324 28 30 c53 56 53 56 476 51 307 -3 394 -7 416 -18z m2878 -11 l34 -34 -3
-343 -3 -343 -30 -55 c-47 -85 -131 -165 -222 -208 l-78 -37 -331 -3 -331 -4
-29 25 -29 25 0 414 c0 476 -3 459 100 540 68 53 62 52 544 55 l345 1 33 -33z
m-1466 -7 c23 -18 56 -50 73 -71 l31 -39 3 -430 4 -430 -23 -24 -22 -24 -487
0 c-462 0 -488 1 -504 19 -15 17 -16 56 -14 442 l3 425 39 53 c22 29 57 66 79
82 l40 29 368 0 367 0 43 -32z"/>
<path d="M2235 3966 c-17 -7 -43 -28 -58 -45 -26 -31 -27 -37 -27 -152 0 -129
12 -175 52 -209 20 -17 41 -19 170 -20 l146 0 26 30 c35 42 46 89 46 203 0
114 -14 156 -65 187 -28 17 -49 20 -146 20 -72 -1 -125 -6 -144 -14z"/>
<path d="M3604 3961 c-66 -40 -74 -61 -74 -194 0 -100 3 -128 20 -161 28 -58
53 -66 199 -66 196 0 221 25 221 222 0 127 -13 162 -72 198 -47 29 -248 29
-294 1z"/>
<path d="M844 3961 c-68 -31 -74 -47 -74 -194 0 -139 8 -168 56 -206 24 -19
40 -21 163 -21 199 0 211 13 211 216 0 193 -15 208 -205 218 -95 5 -116 3
-151 -13z"/>
<path d="M3630 2580 c-20 -5 -49 -24 -67 -44 l-33 -36 0 -120 c0 -204 15 -220
213 -220 123 0 137 2 168 23 54 36 64 67 64 197 0 182 -28 211 -207 209 -56
-1 -119 -5 -138 -9z"/>
<path d="M878 2581 c-90 -18 -118 -66 -118 -198 1 -117 12 -162 50 -196 l32
-28 159 2 c88 1 158 4 155 6 -2 3 7 21 21 41 23 35 24 42 21 169 l-3 133 -31
31 c-17 16 -48 34 -70 39 -45 11 -162 11 -216 1z"/>
<path d="M2253 2578 c-28 -6 -52 -20 -72 -44 l-31 -35 0 -128 c0 -117 2 -131
23 -162 37 -55 56 -59 209 -51 115 7 140 11 159 27 41 38 49 68 49 185 0 137
-14 174 -74 201 -46 21 -187 25 -263 7z"/>
<path d="M844 1186 c-17 -8 -41 -27 -53 -44 -19 -27 -21 -43 -21 -159 1 -139
5 -154 56 -197 31 -25 37 -26 153 -26 206 0 221 15 221 215 0 155 -10 188 -65
211 -46 19 -248 19 -291 0z"/>
<path d="M3584 1181 c-48 -30 -64 -74 -64 -186 0 -122 14 -178 52 -210 28 -24
36 -25 161 -25 213 0 234 21 239 238 l3 134 -37 34 -38 34 -142 0 c-122 0
-147 -3 -174 -19z"/>
<path d="M2224 1190 c-32 -13 -73 -67 -80 -108 -4 -20 -3 -88 2 -149 9 -104
12 -115 39 -143 l29 -30 153 0 152 0 36 35 35 36 0 147 c0 161 -5 179 -60 207
-32 17 -268 21 -306 5z"/>
</g>
</svg>
